<mxfile host="app.diagrams.net" modified="2023-11-02T23:45:21.251Z" agent="Mozilla/5.0 (Windows NT 10.0; Win64; x64; rv:109.0) Gecko/20100101 Firefox/119.0" etag="X5P4PeE3QKH-Vr17QIol" version="22.0.8" type="google">
  <diagram name="Page-1" id="O3OPINNU6DTvj6AXow6C">
    <mxGraphModel grid="1" page="1" gridSize="10" guides="1" tooltips="1" connect="1" arrows="1" fold="1" pageScale="1" pageWidth="850" pageHeight="1100" math="0" shadow="0">
      <root>
        <mxCell id="0" />
        <mxCell id="1" parent="0" />
        <mxCell id="JwIK93oX0tThSIfr5X6w-5" style="edgeStyle=orthogonalEdgeStyle;rounded=0;orthogonalLoop=1;jettySize=auto;html=1;entryX=0.5;entryY=0;entryDx=0;entryDy=0;" edge="1" parent="1" source="JwIK93oX0tThSIfr5X6w-1" target="JwIK93oX0tThSIfr5X6w-6">
          <mxGeometry relative="1" as="geometry">
            <mxPoint x="230" y="220" as="targetPoint" />
          </mxGeometry>
        </mxCell>
        <mxCell id="JwIK93oX0tThSIfr5X6w-9" value="True" style="edgeLabel;html=1;align=center;verticalAlign=middle;resizable=0;points=[];" connectable="0" vertex="1" parent="JwIK93oX0tThSIfr5X6w-5">
          <mxGeometry x="-0.3467" relative="1" as="geometry">
            <mxPoint as="offset" />
          </mxGeometry>
        </mxCell>
        <mxCell id="JwIK93oX0tThSIfr5X6w-12" style="edgeStyle=orthogonalEdgeStyle;rounded=0;orthogonalLoop=1;jettySize=auto;html=1;entryX=0.5;entryY=0;entryDx=0;entryDy=0;" edge="1" parent="1" source="JwIK93oX0tThSIfr5X6w-1" target="JwIK93oX0tThSIfr5X6w-10">
          <mxGeometry relative="1" as="geometry" />
        </mxCell>
        <mxCell id="JwIK93oX0tThSIfr5X6w-1" value="1" style="ellipse;whiteSpace=wrap;html=1;aspect=fixed;fontSize=32;" vertex="1" parent="1">
          <mxGeometry x="300" y="110" width="80" height="80" as="geometry" />
        </mxCell>
        <mxCell id="JwIK93oX0tThSIfr5X6w-4" value="!unit || num === 0" style="text;whiteSpace=wrap;" vertex="1" parent="1">
          <mxGeometry x="210" y="100" width="130" height="40" as="geometry" />
        </mxCell>
        <mxCell id="JwIK93oX0tThSIfr5X6w-6" value="2" style="ellipse;whiteSpace=wrap;html=1;aspect=fixed;fontSize=32;strokeColor=#FF0000;" vertex="1" parent="1">
          <mxGeometry x="180" y="220" width="80" height="80" as="geometry" />
        </mxCell>
        <mxCell id="JwIK93oX0tThSIfr5X6w-18" style="edgeStyle=orthogonalEdgeStyle;rounded=0;orthogonalLoop=1;jettySize=auto;html=1;entryX=0.5;entryY=0;entryDx=0;entryDy=0;" edge="1" parent="1" source="JwIK93oX0tThSIfr5X6w-10" target="JwIK93oX0tThSIfr5X6w-17">
          <mxGeometry relative="1" as="geometry" />
        </mxCell>
        <mxCell id="JwIK93oX0tThSIfr5X6w-19" value="False" style="edgeLabel;html=1;align=center;verticalAlign=middle;resizable=0;points=[];" connectable="0" vertex="1" parent="JwIK93oX0tThSIfr5X6w-18">
          <mxGeometry x="-0.5846" y="1" relative="1" as="geometry">
            <mxPoint as="offset" />
          </mxGeometry>
        </mxCell>
        <mxCell id="JwIK93oX0tThSIfr5X6w-10" value="3" style="ellipse;whiteSpace=wrap;html=1;aspect=fixed;fontSize=32;" vertex="1" parent="1">
          <mxGeometry x="300" y="290" width="80" height="80" as="geometry" />
        </mxCell>
        <mxCell id="JwIK93oX0tThSIfr5X6w-11" value="if (milliseconds[unit])" style="text;html=1;align=center;verticalAlign=middle;resizable=0;points=[];autosize=1;strokeColor=none;fillColor=none;" vertex="1" parent="1">
          <mxGeometry x="370" y="280" width="140" height="30" as="geometry" />
        </mxCell>
        <mxCell id="JwIK93oX0tThSIfr5X6w-59" style="edgeStyle=orthogonalEdgeStyle;rounded=0;orthogonalLoop=1;jettySize=auto;html=1;entryX=0;entryY=0.5;entryDx=0;entryDy=0;" edge="1" parent="1" source="JwIK93oX0tThSIfr5X6w-13" target="JwIK93oX0tThSIfr5X6w-58">
          <mxGeometry relative="1" as="geometry">
            <Array as="points">
              <mxPoint x="70" y="1000" />
            </Array>
          </mxGeometry>
        </mxCell>
        <mxCell id="JwIK93oX0tThSIfr5X6w-13" value="4" style="ellipse;whiteSpace=wrap;html=1;aspect=fixed;fontSize=32;" vertex="1" parent="1">
          <mxGeometry x="40" y="390" width="80" height="80" as="geometry" />
        </mxCell>
        <mxCell id="JwIK93oX0tThSIfr5X6w-14" style="edgeStyle=orthogonalEdgeStyle;rounded=0;orthogonalLoop=1;jettySize=auto;html=1;entryX=0.413;entryY=0.038;entryDx=0;entryDy=0;entryPerimeter=0;exitX=0;exitY=0.5;exitDx=0;exitDy=0;" edge="1" parent="1" source="JwIK93oX0tThSIfr5X6w-10" target="JwIK93oX0tThSIfr5X6w-13">
          <mxGeometry relative="1" as="geometry">
            <mxPoint x="140" y="330" as="sourcePoint" />
          </mxGeometry>
        </mxCell>
        <mxCell id="JwIK93oX0tThSIfr5X6w-15" value="True" style="edgeLabel;html=1;align=center;verticalAlign=middle;resizable=0;points=[];" connectable="0" vertex="1" parent="JwIK93oX0tThSIfr5X6w-14">
          <mxGeometry x="-0.554" y="3" relative="1" as="geometry">
            <mxPoint y="-3" as="offset" />
          </mxGeometry>
        </mxCell>
        <mxCell id="JwIK93oX0tThSIfr5X6w-16" value="s.epoch += milliseconds[unit] * num" style="text;html=1;align=center;verticalAlign=middle;resizable=0;points=[];autosize=1;strokeColor=none;fillColor=none;" vertex="1" parent="1">
          <mxGeometry x="-170" y="380" width="220" height="30" as="geometry" />
        </mxCell>
        <mxCell id="JwIK93oX0tThSIfr5X6w-26" style="edgeStyle=orthogonalEdgeStyle;rounded=0;orthogonalLoop=1;jettySize=auto;html=1;" edge="1" parent="1" source="JwIK93oX0tThSIfr5X6w-17" target="JwIK93oX0tThSIfr5X6w-25">
          <mxGeometry relative="1" as="geometry" />
        </mxCell>
        <mxCell id="JwIK93oX0tThSIfr5X6w-27" value="False" style="edgeLabel;html=1;align=center;verticalAlign=middle;resizable=0;points=[];" connectable="0" vertex="1" parent="JwIK93oX0tThSIfr5X6w-26">
          <mxGeometry x="-0.65" y="-2" relative="1" as="geometry">
            <mxPoint as="offset" />
          </mxGeometry>
        </mxCell>
        <mxCell id="JwIK93oX0tThSIfr5X6w-17" value="5" style="ellipse;whiteSpace=wrap;html=1;aspect=fixed;fontSize=32;" vertex="1" parent="1">
          <mxGeometry x="410" y="390" width="80" height="80" as="geometry" />
        </mxCell>
        <mxCell id="JwIK93oX0tThSIfr5X6w-20" value="unit === &#39;week&#39;" style="text;html=1;align=center;verticalAlign=middle;resizable=0;points=[];autosize=1;strokeColor=none;fillColor=none;" vertex="1" parent="1">
          <mxGeometry x="480" y="370" width="100" height="30" as="geometry" />
        </mxCell>
        <mxCell id="JwIK93oX0tThSIfr5X6w-60" style="edgeStyle=orthogonalEdgeStyle;rounded=0;orthogonalLoop=1;jettySize=auto;html=1;entryX=0;entryY=0.5;entryDx=0;entryDy=0;" edge="1" parent="1" source="JwIK93oX0tThSIfr5X6w-21" target="JwIK93oX0tThSIfr5X6w-58">
          <mxGeometry relative="1" as="geometry">
            <Array as="points">
              <mxPoint x="190" y="1000" />
            </Array>
          </mxGeometry>
        </mxCell>
        <mxCell id="JwIK93oX0tThSIfr5X6w-21" value="6" style="ellipse;whiteSpace=wrap;html=1;aspect=fixed;fontSize=32;" vertex="1" parent="1">
          <mxGeometry x="140" y="480" width="80" height="80" as="geometry" />
        </mxCell>
        <mxCell id="JwIK93oX0tThSIfr5X6w-22" style="edgeStyle=orthogonalEdgeStyle;rounded=0;orthogonalLoop=1;jettySize=auto;html=1;entryX=0.413;entryY=0.038;entryDx=0;entryDy=0;entryPerimeter=0;exitX=0;exitY=0.5;exitDx=0;exitDy=0;" edge="1" parent="1" source="JwIK93oX0tThSIfr5X6w-17" target="JwIK93oX0tThSIfr5X6w-21">
          <mxGeometry relative="1" as="geometry">
            <mxPoint x="221.2701665379259" y="410" as="sourcePoint" />
            <Array as="points">
              <mxPoint x="410" y="420" />
              <mxPoint x="173" y="420" />
            </Array>
          </mxGeometry>
        </mxCell>
        <mxCell id="JwIK93oX0tThSIfr5X6w-23" value="True" style="edgeLabel;html=1;align=center;verticalAlign=middle;resizable=0;points=[];" connectable="0" vertex="1" parent="JwIK93oX0tThSIfr5X6w-22">
          <mxGeometry x="0.1091" y="-1" relative="1" as="geometry">
            <mxPoint as="offset" />
          </mxGeometry>
        </mxCell>
        <mxCell id="JwIK93oX0tThSIfr5X6w-24" value="s.epoch += milliseconds.day * (num * 7);" style="text;html=1;align=center;verticalAlign=middle;resizable=0;points=[];autosize=1;strokeColor=none;fillColor=none;" vertex="1" parent="1">
          <mxGeometry x="170" y="450" width="250" height="30" as="geometry" />
        </mxCell>
        <mxCell id="JwIK93oX0tThSIfr5X6w-25" value="7" style="ellipse;whiteSpace=wrap;html=1;aspect=fixed;fontSize=32;" vertex="1" parent="1">
          <mxGeometry x="510" y="490" width="80" height="80" as="geometry" />
        </mxCell>
        <mxCell id="JwIK93oX0tThSIfr5X6w-28" value="unit === &#39;quarter&#39; || unit === &#39;season&#39;" style="text;html=1;align=center;verticalAlign=middle;resizable=0;points=[];autosize=1;strokeColor=none;fillColor=none;" vertex="1" parent="1">
          <mxGeometry x="560" y="470" width="220" height="30" as="geometry" />
        </mxCell>
        <mxCell id="JwIK93oX0tThSIfr5X6w-30" style="edgeStyle=orthogonalEdgeStyle;rounded=0;orthogonalLoop=1;jettySize=auto;html=1;" edge="1" parent="1">
          <mxGeometry relative="1" as="geometry">
            <mxPoint x="590" y="520" as="sourcePoint" />
            <mxPoint x="700" y="600" as="targetPoint" />
          </mxGeometry>
        </mxCell>
        <mxCell id="JwIK93oX0tThSIfr5X6w-31" value="False" style="edgeLabel;html=1;align=center;verticalAlign=middle;resizable=0;points=[];" connectable="0" vertex="1" parent="JwIK93oX0tThSIfr5X6w-30">
          <mxGeometry x="-0.65" y="-2" relative="1" as="geometry">
            <mxPoint as="offset" />
          </mxGeometry>
        </mxCell>
        <mxCell id="JwIK93oX0tThSIfr5X6w-61" style="edgeStyle=orthogonalEdgeStyle;rounded=0;orthogonalLoop=1;jettySize=auto;html=1;entryX=0;entryY=0.5;entryDx=0;entryDy=0;" edge="1" parent="1" source="JwIK93oX0tThSIfr5X6w-34" target="JwIK93oX0tThSIfr5X6w-58">
          <mxGeometry relative="1" as="geometry">
            <Array as="points">
              <mxPoint x="275" y="1000" />
            </Array>
          </mxGeometry>
        </mxCell>
        <mxCell id="JwIK93oX0tThSIfr5X6w-34" value="8" style="ellipse;whiteSpace=wrap;html=1;aspect=fixed;fontSize=32;" vertex="1" parent="1">
          <mxGeometry x="235" y="600" width="80" height="80" as="geometry" />
        </mxCell>
        <mxCell id="JwIK93oX0tThSIfr5X6w-35" style="edgeStyle=orthogonalEdgeStyle;rounded=0;orthogonalLoop=1;jettySize=auto;html=1;entryX=0.413;entryY=0.038;entryDx=0;entryDy=0;entryPerimeter=0;exitX=0;exitY=0.5;exitDx=0;exitDy=0;" edge="1" parent="1" target="JwIK93oX0tThSIfr5X6w-34">
          <mxGeometry relative="1" as="geometry">
            <mxPoint x="510" y="530" as="sourcePoint" />
            <Array as="points">
              <mxPoint x="270" y="530" />
              <mxPoint x="270" y="603" />
            </Array>
          </mxGeometry>
        </mxCell>
        <mxCell id="JwIK93oX0tThSIfr5X6w-36" value="True" style="edgeLabel;html=1;align=center;verticalAlign=middle;resizable=0;points=[];" connectable="0" vertex="1" parent="JwIK93oX0tThSIfr5X6w-35">
          <mxGeometry x="0.1091" y="-1" relative="1" as="geometry">
            <mxPoint as="offset" />
          </mxGeometry>
        </mxCell>
        <mxCell id="JwIK93oX0tThSIfr5X6w-37" value="s.epoch += milliseconds.month * (num * 4);" style="text;html=1;align=center;verticalAlign=middle;resizable=0;points=[];autosize=1;strokeColor=none;fillColor=none;" vertex="1" parent="1">
          <mxGeometry x="270" y="560" width="260" height="30" as="geometry" />
        </mxCell>
        <mxCell id="JwIK93oX0tThSIfr5X6w-41" style="edgeStyle=orthogonalEdgeStyle;rounded=0;orthogonalLoop=1;jettySize=auto;html=1;" edge="1" parent="1" source="JwIK93oX0tThSIfr5X6w-43" target="JwIK93oX0tThSIfr5X6w-48">
          <mxGeometry relative="1" as="geometry" />
        </mxCell>
        <mxCell id="JwIK93oX0tThSIfr5X6w-42" value="False" style="edgeLabel;html=1;align=center;verticalAlign=middle;resizable=0;points=[];" connectable="0" vertex="1" parent="JwIK93oX0tThSIfr5X6w-41">
          <mxGeometry x="-0.65" y="-2" relative="1" as="geometry">
            <mxPoint as="offset" />
          </mxGeometry>
        </mxCell>
        <mxCell id="JwIK93oX0tThSIfr5X6w-43" value="9" style="ellipse;whiteSpace=wrap;html=1;aspect=fixed;fontSize=32;" vertex="1" parent="1">
          <mxGeometry x="660" y="600" width="80" height="80" as="geometry" />
        </mxCell>
        <mxCell id="JwIK93oX0tThSIfr5X6w-62" style="edgeStyle=orthogonalEdgeStyle;rounded=0;orthogonalLoop=1;jettySize=auto;html=1;entryX=0;entryY=0.5;entryDx=0;entryDy=0;" edge="1" parent="1" source="JwIK93oX0tThSIfr5X6w-44" target="JwIK93oX0tThSIfr5X6w-58">
          <mxGeometry relative="1" as="geometry" />
        </mxCell>
        <mxCell id="JwIK93oX0tThSIfr5X6w-44" value="10" style="ellipse;whiteSpace=wrap;html=1;aspect=fixed;fontSize=32;" vertex="1" parent="1">
          <mxGeometry x="360" y="690" width="80" height="80" as="geometry" />
        </mxCell>
        <mxCell id="JwIK93oX0tThSIfr5X6w-45" style="edgeStyle=orthogonalEdgeStyle;rounded=0;orthogonalLoop=1;jettySize=auto;html=1;entryX=0.558;entryY=0.018;entryDx=0;entryDy=0;entryPerimeter=0;exitX=0;exitY=0.5;exitDx=0;exitDy=0;" edge="1" parent="1" source="JwIK93oX0tThSIfr5X6w-43" target="JwIK93oX0tThSIfr5X6w-44">
          <mxGeometry relative="1" as="geometry">
            <mxPoint x="471.2701665379259" y="620" as="sourcePoint" />
            <Array as="points">
              <mxPoint x="660" y="630" />
              <mxPoint x="400" y="630" />
              <mxPoint x="400" y="693" />
              <mxPoint x="405" y="693" />
            </Array>
          </mxGeometry>
        </mxCell>
        <mxCell id="JwIK93oX0tThSIfr5X6w-46" value="True" style="edgeLabel;html=1;align=center;verticalAlign=middle;resizable=0;points=[];" connectable="0" vertex="1" parent="JwIK93oX0tThSIfr5X6w-45">
          <mxGeometry x="0.1091" y="-1" relative="1" as="geometry">
            <mxPoint as="offset" />
          </mxGeometry>
        </mxCell>
        <mxCell id="JwIK93oX0tThSIfr5X6w-47" value="s.epoch += milliseconds.month * (num * 4);" style="text;html=1;align=center;verticalAlign=middle;resizable=0;points=[];autosize=1;strokeColor=none;fillColor=none;" vertex="1" parent="1">
          <mxGeometry x="395" y="640" width="260" height="30" as="geometry" />
        </mxCell>
        <mxCell id="JwIK93oX0tThSIfr5X6w-48" value="11" style="ellipse;whiteSpace=wrap;html=1;aspect=fixed;fontSize=32;" vertex="1" parent="1">
          <mxGeometry x="760" y="700" width="80" height="80" as="geometry" />
        </mxCell>
        <mxCell id="JwIK93oX0tThSIfr5X6w-49" value="unit === &#39;quarterhour&#39;" style="text;html=1;align=center;verticalAlign=middle;resizable=0;points=[];autosize=1;strokeColor=none;fillColor=none;" vertex="1" parent="1">
          <mxGeometry x="820" y="680" width="140" height="30" as="geometry" />
        </mxCell>
        <mxCell id="JwIK93oX0tThSIfr5X6w-50" style="edgeStyle=orthogonalEdgeStyle;rounded=0;orthogonalLoop=1;jettySize=auto;html=1;entryX=1;entryY=0.5;entryDx=0;entryDy=0;exitX=0.5;exitY=1;exitDx=0;exitDy=0;" edge="1" parent="1" source="JwIK93oX0tThSIfr5X6w-48" target="JwIK93oX0tThSIfr5X6w-58">
          <mxGeometry relative="1" as="geometry">
            <mxPoint x="840" y="730" as="sourcePoint" />
            <mxPoint x="950" y="810" as="targetPoint" />
            <Array as="points">
              <mxPoint x="800" y="1000" />
            </Array>
          </mxGeometry>
        </mxCell>
        <mxCell id="JwIK93oX0tThSIfr5X6w-51" value="False" style="edgeLabel;html=1;align=center;verticalAlign=middle;resizable=0;points=[];" connectable="0" vertex="1" parent="JwIK93oX0tThSIfr5X6w-50">
          <mxGeometry x="-0.65" y="-2" relative="1" as="geometry">
            <mxPoint x="2" y="-58" as="offset" />
          </mxGeometry>
        </mxCell>
        <mxCell id="JwIK93oX0tThSIfr5X6w-63" style="edgeStyle=orthogonalEdgeStyle;rounded=0;orthogonalLoop=1;jettySize=auto;html=1;entryX=0.5;entryY=0;entryDx=0;entryDy=0;" edge="1" parent="1" source="JwIK93oX0tThSIfr5X6w-52" target="JwIK93oX0tThSIfr5X6w-58">
          <mxGeometry relative="1" as="geometry" />
        </mxCell>
        <mxCell id="JwIK93oX0tThSIfr5X6w-52" value="12" style="ellipse;whiteSpace=wrap;html=1;aspect=fixed;fontSize=32;" vertex="1" parent="1">
          <mxGeometry x="485" y="810" width="80" height="80" as="geometry" />
        </mxCell>
        <mxCell id="JwIK93oX0tThSIfr5X6w-53" style="edgeStyle=orthogonalEdgeStyle;rounded=0;orthogonalLoop=1;jettySize=auto;html=1;entryX=0.413;entryY=0.038;entryDx=0;entryDy=0;entryPerimeter=0;exitX=0;exitY=0.5;exitDx=0;exitDy=0;" edge="1" parent="1" target="JwIK93oX0tThSIfr5X6w-52">
          <mxGeometry relative="1" as="geometry">
            <mxPoint x="760" y="740" as="sourcePoint" />
            <Array as="points">
              <mxPoint x="520" y="740" />
              <mxPoint x="520" y="813" />
            </Array>
          </mxGeometry>
        </mxCell>
        <mxCell id="JwIK93oX0tThSIfr5X6w-54" value="True" style="edgeLabel;html=1;align=center;verticalAlign=middle;resizable=0;points=[];" connectable="0" vertex="1" parent="JwIK93oX0tThSIfr5X6w-53">
          <mxGeometry x="0.1091" y="-1" relative="1" as="geometry">
            <mxPoint as="offset" />
          </mxGeometry>
        </mxCell>
        <mxCell id="JwIK93oX0tThSIfr5X6w-55" value="s.epoch += milliseconds.minute * 15 * num;" style="text;html=1;align=center;verticalAlign=middle;resizable=0;points=[];autosize=1;strokeColor=none;fillColor=none;" vertex="1" parent="1">
          <mxGeometry x="510" y="740" width="260" height="30" as="geometry" />
        </mxCell>
        <mxCell id="JwIK93oX0tThSIfr5X6w-56" value="unit === &#39;season&#39;" style="text;html=1;align=center;verticalAlign=middle;resizable=0;points=[];autosize=1;strokeColor=none;fillColor=none;" vertex="1" parent="1">
          <mxGeometry x="720" y="580" width="120" height="30" as="geometry" />
        </mxCell>
        <mxCell id="JwIK93oX0tThSIfr5X6w-67" style="edgeStyle=orthogonalEdgeStyle;rounded=0;orthogonalLoop=1;jettySize=auto;html=1;" edge="1" parent="1" source="JwIK93oX0tThSIfr5X6w-58" target="JwIK93oX0tThSIfr5X6w-66">
          <mxGeometry relative="1" as="geometry">
            <Array as="points">
              <mxPoint x="370" y="1020" />
            </Array>
          </mxGeometry>
        </mxCell>
        <mxCell id="JwIK93oX0tThSIfr5X6w-68" value="True" style="edgeLabel;html=1;align=center;verticalAlign=middle;resizable=0;points=[];" connectable="0" vertex="1" parent="JwIK93oX0tThSIfr5X6w-67">
          <mxGeometry x="-0.3705" relative="1" as="geometry">
            <mxPoint as="offset" />
          </mxGeometry>
        </mxCell>
        <mxCell id="JwIK93oX0tThSIfr5X6w-58" value="13" style="ellipse;whiteSpace=wrap;html=1;aspect=fixed;fontSize=32;" vertex="1" parent="1">
          <mxGeometry x="440" y="960" width="80" height="80" as="geometry" />
        </mxCell>
        <mxCell id="JwIK93oX0tThSIfr5X6w-65" value="if (keep[unit])" style="text;whiteSpace=wrap;" vertex="1" parent="1">
          <mxGeometry x="510" y="950" width="100" height="40" as="geometry" />
        </mxCell>
        <mxCell id="JwIK93oX0tThSIfr5X6w-72" style="edgeStyle=orthogonalEdgeStyle;rounded=0;orthogonalLoop=1;jettySize=auto;html=1;" edge="1" parent="1" source="JwIK93oX0tThSIfr5X6w-66" target="JwIK93oX0tThSIfr5X6w-71">
          <mxGeometry relative="1" as="geometry" />
        </mxCell>
        <mxCell id="JwIK93oX0tThSIfr5X6w-73" value="True" style="edgeLabel;html=1;align=center;verticalAlign=middle;resizable=0;points=[];" connectable="0" vertex="1" parent="JwIK93oX0tThSIfr5X6w-72">
          <mxGeometry x="-0.4841" y="-2" relative="1" as="geometry">
            <mxPoint as="offset" />
          </mxGeometry>
        </mxCell>
        <mxCell id="JwIK93oX0tThSIfr5X6w-78" style="edgeStyle=orthogonalEdgeStyle;rounded=0;orthogonalLoop=1;jettySize=auto;html=1;entryX=0.5;entryY=0;entryDx=0;entryDy=0;" edge="1" parent="1" source="JwIK93oX0tThSIfr5X6w-66" target="JwIK93oX0tThSIfr5X6w-77">
          <mxGeometry relative="1" as="geometry" />
        </mxCell>
        <mxCell id="JwIK93oX0tThSIfr5X6w-79" value="False" style="edgeLabel;html=1;align=center;verticalAlign=middle;resizable=0;points=[];" connectable="0" vertex="1" parent="JwIK93oX0tThSIfr5X6w-78">
          <mxGeometry x="-0.5925" y="-2" relative="1" as="geometry">
            <mxPoint as="offset" />
          </mxGeometry>
        </mxCell>
        <mxCell id="JwIK93oX0tThSIfr5X6w-66" value="14" style="ellipse;whiteSpace=wrap;html=1;aspect=fixed;fontSize=32;" vertex="1" parent="1">
          <mxGeometry x="330" y="1070" width="80" height="80" as="geometry" />
        </mxCell>
        <mxCell id="JwIK93oX0tThSIfr5X6w-70" value="i &lt; keep[unit].length" style="text;whiteSpace=wrap;" vertex="1" parent="1">
          <mxGeometry x="240" y="1050" width="140" height="40" as="geometry" />
        </mxCell>
        <mxCell id="JwIK93oX0tThSIfr5X6w-75" style="edgeStyle=orthogonalEdgeStyle;rounded=0;orthogonalLoop=1;jettySize=auto;html=1;entryX=0.5;entryY=1;entryDx=0;entryDy=0;" edge="1" parent="1" source="JwIK93oX0tThSIfr5X6w-71" target="JwIK93oX0tThSIfr5X6w-66">
          <mxGeometry relative="1" as="geometry" />
        </mxCell>
        <mxCell id="JwIK93oX0tThSIfr5X6w-76" value="i++" style="edgeLabel;html=1;align=center;verticalAlign=middle;resizable=0;points=[];" connectable="0" vertex="1" parent="JwIK93oX0tThSIfr5X6w-75">
          <mxGeometry x="-0.7186" relative="1" as="geometry">
            <mxPoint as="offset" />
          </mxGeometry>
        </mxCell>
        <mxCell id="JwIK93oX0tThSIfr5X6w-71" value="15" style="ellipse;whiteSpace=wrap;html=1;aspect=fixed;fontSize=32;" vertex="1" parent="1">
          <mxGeometry x="235" y="1180" width="80" height="80" as="geometry" />
        </mxCell>
        <mxCell id="JwIK93oX0tThSIfr5X6w-74" value="&lt;div&gt;want[u] = old[u]();&lt;/div&gt;" style="text;html=1;align=center;verticalAlign=middle;resizable=0;points=[];autosize=1;strokeColor=none;fillColor=none;" vertex="1" parent="1">
          <mxGeometry x="150" y="1150" width="120" height="30" as="geometry" />
        </mxCell>
        <mxCell id="JwIK93oX0tThSIfr5X6w-84" style="edgeStyle=orthogonalEdgeStyle;rounded=0;orthogonalLoop=1;jettySize=auto;html=1;entryX=0.5;entryY=0;entryDx=0;entryDy=0;" edge="1" parent="1" source="JwIK93oX0tThSIfr5X6w-77" target="JwIK93oX0tThSIfr5X6w-83">
          <mxGeometry relative="1" as="geometry">
            <Array as="points">
              <mxPoint x="380" y="1230" />
            </Array>
          </mxGeometry>
        </mxCell>
        <mxCell id="JwIK93oX0tThSIfr5X6w-85" value="True" style="edgeLabel;html=1;align=center;verticalAlign=middle;resizable=0;points=[];" connectable="0" vertex="1" parent="JwIK93oX0tThSIfr5X6w-84">
          <mxGeometry x="-0.4396" y="1" relative="1" as="geometry">
            <mxPoint as="offset" />
          </mxGeometry>
        </mxCell>
        <mxCell id="JwIK93oX0tThSIfr5X6w-87" style="edgeStyle=orthogonalEdgeStyle;rounded=0;orthogonalLoop=1;jettySize=auto;html=1;" edge="1" parent="1" source="JwIK93oX0tThSIfr5X6w-77" target="JwIK93oX0tThSIfr5X6w-86">
          <mxGeometry relative="1" as="geometry" />
        </mxCell>
        <mxCell id="JwIK93oX0tThSIfr5X6w-88" value="False" style="edgeLabel;html=1;align=center;verticalAlign=middle;resizable=0;points=[];" connectable="0" vertex="1" parent="JwIK93oX0tThSIfr5X6w-87">
          <mxGeometry x="-0.8379" y="-2" relative="1" as="geometry">
            <mxPoint x="7" y="-2" as="offset" />
          </mxGeometry>
        </mxCell>
        <mxCell id="JwIK93oX0tThSIfr5X6w-77" value="16" style="ellipse;whiteSpace=wrap;html=1;aspect=fixed;fontSize=32;" vertex="1" parent="1">
          <mxGeometry x="450" y="1170" width="80" height="80" as="geometry" />
        </mxCell>
        <mxCell id="JwIK93oX0tThSIfr5X6w-80" style="edgeStyle=orthogonalEdgeStyle;rounded=0;orthogonalLoop=1;jettySize=auto;html=1;entryX=0.755;entryY=0.054;entryDx=0;entryDy=0;entryPerimeter=0;" edge="1" parent="1" source="JwIK93oX0tThSIfr5X6w-58" target="JwIK93oX0tThSIfr5X6w-77">
          <mxGeometry relative="1" as="geometry">
            <Array as="points">
              <mxPoint x="510" y="1105" />
            </Array>
          </mxGeometry>
        </mxCell>
        <mxCell id="JwIK93oX0tThSIfr5X6w-81" value="False" style="edgeLabel;html=1;align=center;verticalAlign=middle;resizable=0;points=[];" connectable="0" vertex="1" parent="JwIK93oX0tThSIfr5X6w-80">
          <mxGeometry x="-0.2786" relative="1" as="geometry">
            <mxPoint y="-9" as="offset" />
          </mxGeometry>
        </mxCell>
        <mxCell id="JwIK93oX0tThSIfr5X6w-82" value="if (dstAwareUnits[unit])" style="text;html=1;align=center;verticalAlign=middle;resizable=0;points=[];autosize=1;strokeColor=none;fillColor=none;" vertex="1" parent="1">
          <mxGeometry x="510" y="1160" width="150" height="30" as="geometry" />
        </mxCell>
        <mxCell id="JwIK93oX0tThSIfr5X6w-90" style="edgeStyle=orthogonalEdgeStyle;rounded=0;orthogonalLoop=1;jettySize=auto;html=1;entryX=0;entryY=0;entryDx=0;entryDy=0;" edge="1" parent="1" source="JwIK93oX0tThSIfr5X6w-83" target="JwIK93oX0tThSIfr5X6w-89">
          <mxGeometry relative="1" as="geometry">
            <Array as="points">
              <mxPoint x="462" y="1350" />
            </Array>
          </mxGeometry>
        </mxCell>
        <mxCell id="JwIK93oX0tThSIfr5X6w-83" value="17" style="ellipse;whiteSpace=wrap;html=1;aspect=fixed;fontSize=32;" vertex="1" parent="1">
          <mxGeometry x="340" y="1310" width="80" height="80" as="geometry" />
        </mxCell>
        <mxCell id="JwIK93oX0tThSIfr5X6w-86" value="18" style="ellipse;whiteSpace=wrap;html=1;aspect=fixed;fontSize=32;" vertex="1" parent="1">
          <mxGeometry x="550" y="1310" width="80" height="80" as="geometry" />
        </mxCell>
        <mxCell id="JwIK93oX0tThSIfr5X6w-96" style="edgeStyle=orthogonalEdgeStyle;rounded=0;orthogonalLoop=1;jettySize=auto;html=1;entryX=0.5;entryY=0;entryDx=0;entryDy=0;" edge="1" parent="1" source="JwIK93oX0tThSIfr5X6w-89" target="JwIK93oX0tThSIfr5X6w-95">
          <mxGeometry relative="1" as="geometry" />
        </mxCell>
        <mxCell id="JwIK93oX0tThSIfr5X6w-97" value="True" style="edgeLabel;html=1;align=center;verticalAlign=middle;resizable=0;points=[];" connectable="0" vertex="1" parent="JwIK93oX0tThSIfr5X6w-96">
          <mxGeometry x="-0.2507" y="2" relative="1" as="geometry">
            <mxPoint x="9" y="-2" as="offset" />
          </mxGeometry>
        </mxCell>
        <mxCell id="JwIK93oX0tThSIfr5X6w-99" style="edgeStyle=orthogonalEdgeStyle;rounded=0;orthogonalLoop=1;jettySize=auto;html=1;entryX=0.5;entryY=0;entryDx=0;entryDy=0;" edge="1" parent="1" source="JwIK93oX0tThSIfr5X6w-89" target="JwIK93oX0tThSIfr5X6w-98">
          <mxGeometry relative="1" as="geometry" />
        </mxCell>
        <mxCell id="JwIK93oX0tThSIfr5X6w-100" value="False" style="edgeLabel;html=1;align=center;verticalAlign=middle;resizable=0;points=[];" connectable="0" vertex="1" parent="JwIK93oX0tThSIfr5X6w-99">
          <mxGeometry x="-0.6267" y="-1" relative="1" as="geometry">
            <mxPoint x="12" y="-1" as="offset" />
          </mxGeometry>
        </mxCell>
        <mxCell id="JwIK93oX0tThSIfr5X6w-89" value="19" style="ellipse;whiteSpace=wrap;html=1;aspect=fixed;fontSize=32;" vertex="1" parent="1">
          <mxGeometry x="450" y="1430" width="80" height="80" as="geometry" />
        </mxCell>
        <mxCell id="JwIK93oX0tThSIfr5X6w-91" style="edgeStyle=orthogonalEdgeStyle;rounded=0;orthogonalLoop=1;jettySize=auto;html=1;entryX=0.5;entryY=0;entryDx=0;entryDy=0;" edge="1" parent="1" source="JwIK93oX0tThSIfr5X6w-86" target="JwIK93oX0tThSIfr5X6w-89">
          <mxGeometry relative="1" as="geometry">
            <mxPoint x="620" y="1480" as="targetPoint" />
            <Array as="points">
              <mxPoint x="590" y="1400" />
              <mxPoint x="490" y="1400" />
            </Array>
          </mxGeometry>
        </mxCell>
        <mxCell id="JwIK93oX0tThSIfr5X6w-92" value="var diff = old.timezone().current.offset - s.timezone().current.offset;&lt;br&gt;&amp;nbsp;&amp;nbsp;&amp;nbsp;&amp;nbsp;&amp;nbsp;&amp;nbsp;&amp;nbsp;&amp;nbsp;&amp;nbsp;&amp;nbsp;&amp;nbsp; s.epoch += diff * 3600 * 1000;" style="text;html=1;align=center;verticalAlign=middle;resizable=0;points=[];autosize=1;strokeColor=none;fillColor=none;" vertex="1" parent="1">
          <mxGeometry x="-30" y="1310" width="380" height="40" as="geometry" />
        </mxCell>
        <mxCell id="JwIK93oX0tThSIfr5X6w-94" value="unit === &#39;month&#39;" style="text;whiteSpace=wrap;" vertex="1" parent="1">
          <mxGeometry x="510" y="1420" width="120" height="40" as="geometry" />
        </mxCell>
        <mxCell id="JwIK93oX0tThSIfr5X6w-95" value="20" style="ellipse;whiteSpace=wrap;html=1;aspect=fixed;fontSize=32;" vertex="1" parent="1">
          <mxGeometry x="360" y="1510" width="80" height="80" as="geometry" />
        </mxCell>
        <mxCell id="JwIK93oX0tThSIfr5X6w-113" style="edgeStyle=orthogonalEdgeStyle;rounded=0;orthogonalLoop=1;jettySize=auto;html=1;" edge="1" parent="1" source="JwIK93oX0tThSIfr5X6w-98" target="JwIK93oX0tThSIfr5X6w-107">
          <mxGeometry relative="1" as="geometry" />
        </mxCell>
        <mxCell id="JwIK93oX0tThSIfr5X6w-98" value="21" style="ellipse;whiteSpace=wrap;html=1;aspect=fixed;fontSize=32;" vertex="1" parent="1">
          <mxGeometry x="575" y="1510" width="80" height="80" as="geometry" />
        </mxCell>
        <mxCell id="JwIK93oX0tThSIfr5X6w-102" value="want.month = old.month() + num;&#xa;want = rollMonth(want, old);" style="text;whiteSpace=wrap;" vertex="1" parent="1">
          <mxGeometry x="200" y="1490" width="190" height="40" as="geometry" />
        </mxCell>
        <mxCell id="JwIK93oX0tThSIfr5X6w-103" style="edgeStyle=orthogonalEdgeStyle;rounded=0;orthogonalLoop=1;jettySize=auto;html=1;entryX=0.5;entryY=0;entryDx=0;entryDy=0;exitX=-0.013;exitY=0.378;exitDx=0;exitDy=0;exitPerimeter=0;" edge="1" parent="1" source="JwIK93oX0tThSIfr5X6w-107" target="JwIK93oX0tThSIfr5X6w-109">
          <mxGeometry relative="1" as="geometry">
            <mxPoint x="295" y="1640" as="sourcePoint" />
          </mxGeometry>
        </mxCell>
        <mxCell id="JwIK93oX0tThSIfr5X6w-104" value="True" style="edgeLabel;html=1;align=center;verticalAlign=middle;resizable=0;points=[];" connectable="0" vertex="1" parent="JwIK93oX0tThSIfr5X6w-103">
          <mxGeometry x="-0.2507" y="2" relative="1" as="geometry">
            <mxPoint x="9" y="-2" as="offset" />
          </mxGeometry>
        </mxCell>
        <mxCell id="JwIK93oX0tThSIfr5X6w-105" style="edgeStyle=orthogonalEdgeStyle;rounded=0;orthogonalLoop=1;jettySize=auto;html=1;entryX=0.5;entryY=0;entryDx=0;entryDy=0;" edge="1" parent="1" source="JwIK93oX0tThSIfr5X6w-107" target="JwIK93oX0tThSIfr5X6w-110">
          <mxGeometry relative="1" as="geometry" />
        </mxCell>
        <mxCell id="JwIK93oX0tThSIfr5X6w-106" value="False" style="edgeLabel;html=1;align=center;verticalAlign=middle;resizable=0;points=[];" connectable="0" vertex="1" parent="JwIK93oX0tThSIfr5X6w-105">
          <mxGeometry x="-0.6267" y="-1" relative="1" as="geometry">
            <mxPoint x="12" y="-1" as="offset" />
          </mxGeometry>
        </mxCell>
        <mxCell id="JwIK93oX0tThSIfr5X6w-107" value="22" style="ellipse;whiteSpace=wrap;html=1;aspect=fixed;fontSize=32;" vertex="1" parent="1">
          <mxGeometry x="480" y="1610" width="80" height="80" as="geometry" />
        </mxCell>
        <mxCell id="JwIK93oX0tThSIfr5X6w-108" value="unit === &#39;week&#39;" style="text;whiteSpace=wrap;" vertex="1" parent="1">
          <mxGeometry x="550" y="1600" width="120" height="40" as="geometry" />
        </mxCell>
        <mxCell id="JwIK93oX0tThSIfr5X6w-115" style="edgeStyle=orthogonalEdgeStyle;rounded=0;orthogonalLoop=1;jettySize=auto;html=1;" edge="1" parent="1" source="JwIK93oX0tThSIfr5X6w-109" target="JwIK93oX0tThSIfr5X6w-114">
          <mxGeometry relative="1" as="geometry" />
        </mxCell>
        <mxCell id="JwIK93oX0tThSIfr5X6w-116" value="True" style="edgeLabel;html=1;align=center;verticalAlign=middle;resizable=0;points=[];" connectable="0" vertex="1" parent="JwIK93oX0tThSIfr5X6w-115">
          <mxGeometry x="0.3656" y="1" relative="1" as="geometry">
            <mxPoint as="offset" />
          </mxGeometry>
        </mxCell>
        <mxCell id="JwIK93oX0tThSIfr5X6w-183" style="edgeStyle=orthogonalEdgeStyle;rounded=0;orthogonalLoop=1;jettySize=auto;html=1;entryX=0;entryY=0.5;entryDx=0;entryDy=0;" edge="1" parent="1" source="JwIK93oX0tThSIfr5X6w-109" target="JwIK93oX0tThSIfr5X6w-169">
          <mxGeometry relative="1" as="geometry">
            <Array as="points">
              <mxPoint x="250" y="2820" />
            </Array>
          </mxGeometry>
        </mxCell>
        <mxCell id="JwIK93oX0tThSIfr5X6w-184" value="False" style="edgeLabel;html=1;align=center;verticalAlign=middle;resizable=0;points=[];" connectable="0" vertex="1" parent="JwIK93oX0tThSIfr5X6w-183">
          <mxGeometry x="-0.9437" y="-2" relative="1" as="geometry">
            <mxPoint y="1" as="offset" />
          </mxGeometry>
        </mxCell>
        <mxCell id="JwIK93oX0tThSIfr5X6w-109" value="23" style="ellipse;whiteSpace=wrap;html=1;aspect=fixed;fontSize=32;" vertex="1" parent="1">
          <mxGeometry x="205" y="1680" width="80" height="80" as="geometry" />
        </mxCell>
        <mxCell id="JwIK93oX0tThSIfr5X6w-110" value="24" style="ellipse;whiteSpace=wrap;html=1;aspect=fixed;fontSize=32;" vertex="1" parent="1">
          <mxGeometry x="605" y="1690" width="80" height="80" as="geometry" />
        </mxCell>
        <mxCell id="JwIK93oX0tThSIfr5X6w-111" value="sum &lt;= 28 &amp;&amp; sum &gt; 1" style="text;whiteSpace=wrap;" vertex="1" parent="1">
          <mxGeometry x="85" y="1670" width="190" height="40" as="geometry" />
        </mxCell>
        <mxCell id="JwIK93oX0tThSIfr5X6w-112" style="edgeStyle=orthogonalEdgeStyle;rounded=0;orthogonalLoop=1;jettySize=auto;html=1;entryX=0.056;entryY=0.175;entryDx=0;entryDy=0;entryPerimeter=0;" edge="1" parent="1" source="JwIK93oX0tThSIfr5X6w-95" target="JwIK93oX0tThSIfr5X6w-107">
          <mxGeometry relative="1" as="geometry" />
        </mxCell>
        <mxCell id="JwIK93oX0tThSIfr5X6w-182" style="edgeStyle=orthogonalEdgeStyle;rounded=0;orthogonalLoop=1;jettySize=auto;html=1;entryX=0;entryY=0.5;entryDx=0;entryDy=0;" edge="1" parent="1" source="JwIK93oX0tThSIfr5X6w-114" target="JwIK93oX0tThSIfr5X6w-169">
          <mxGeometry relative="1" as="geometry">
            <Array as="points">
              <mxPoint x="145" y="2820" />
            </Array>
          </mxGeometry>
        </mxCell>
        <mxCell id="JwIK93oX0tThSIfr5X6w-114" value="25" style="ellipse;whiteSpace=wrap;html=1;aspect=fixed;fontSize=32;" vertex="1" parent="1">
          <mxGeometry x="105" y="1790" width="80" height="80" as="geometry" />
        </mxCell>
        <mxCell id="JwIK93oX0tThSIfr5X6w-117" value="want.date = sum;" style="text;whiteSpace=wrap;" vertex="1" parent="1">
          <mxGeometry x="25" y="1770" width="130" height="40" as="geometry" />
        </mxCell>
        <mxCell id="JwIK93oX0tThSIfr5X6w-122" style="edgeStyle=orthogonalEdgeStyle;rounded=0;orthogonalLoop=1;jettySize=auto;html=1;" edge="1" parent="1" source="JwIK93oX0tThSIfr5X6w-118" target="JwIK93oX0tThSIfr5X6w-121">
          <mxGeometry relative="1" as="geometry">
            <Array as="points">
              <mxPoint x="500" y="1910" />
            </Array>
          </mxGeometry>
        </mxCell>
        <mxCell id="JwIK93oX0tThSIfr5X6w-123" value="True" style="edgeLabel;html=1;align=center;verticalAlign=middle;resizable=0;points=[];" connectable="0" vertex="1" parent="JwIK93oX0tThSIfr5X6w-122">
          <mxGeometry x="-0.5644" y="2" relative="1" as="geometry">
            <mxPoint as="offset" />
          </mxGeometry>
        </mxCell>
        <mxCell id="JwIK93oX0tThSIfr5X6w-147" style="edgeStyle=orthogonalEdgeStyle;rounded=0;orthogonalLoop=1;jettySize=auto;html=1;" edge="1" parent="1" source="JwIK93oX0tThSIfr5X6w-118" target="JwIK93oX0tThSIfr5X6w-133">
          <mxGeometry relative="1" as="geometry" />
        </mxCell>
        <mxCell id="JwIK93oX0tThSIfr5X6w-118" value="26" style="ellipse;whiteSpace=wrap;html=1;aspect=fixed;fontSize=32;" vertex="1" parent="1">
          <mxGeometry x="540" y="1880" width="80" height="80" as="geometry" />
        </mxCell>
        <mxCell id="JwIK93oX0tThSIfr5X6w-119" value="unit === &#39;date&#39;" style="text;whiteSpace=wrap;" vertex="1" parent="1">
          <mxGeometry x="615" y="1870" width="110" height="40" as="geometry" />
        </mxCell>
        <mxCell id="JwIK93oX0tThSIfr5X6w-120" style="edgeStyle=orthogonalEdgeStyle;rounded=0;orthogonalLoop=1;jettySize=auto;html=1;entryX=0.787;entryY=0.087;entryDx=0;entryDy=0;entryPerimeter=0;" edge="1" parent="1" source="JwIK93oX0tThSIfr5X6w-110" target="JwIK93oX0tThSIfr5X6w-118">
          <mxGeometry relative="1" as="geometry" />
        </mxCell>
        <mxCell id="JwIK93oX0tThSIfr5X6w-126" style="edgeStyle=orthogonalEdgeStyle;rounded=0;orthogonalLoop=1;jettySize=auto;html=1;" edge="1" parent="1" source="JwIK93oX0tThSIfr5X6w-121" target="JwIK93oX0tThSIfr5X6w-125">
          <mxGeometry relative="1" as="geometry">
            <Array as="points">
              <mxPoint x="420" y="2020" />
            </Array>
          </mxGeometry>
        </mxCell>
        <mxCell id="JwIK93oX0tThSIfr5X6w-127" value="True" style="edgeLabel;html=1;align=center;verticalAlign=middle;resizable=0;points=[];" connectable="0" vertex="1" parent="JwIK93oX0tThSIfr5X6w-126">
          <mxGeometry x="-0.4236" y="-1" relative="1" as="geometry">
            <mxPoint as="offset" />
          </mxGeometry>
        </mxCell>
        <mxCell id="JwIK93oX0tThSIfr5X6w-137" style="edgeStyle=orthogonalEdgeStyle;rounded=0;orthogonalLoop=1;jettySize=auto;html=1;entryX=0.5;entryY=0;entryDx=0;entryDy=0;" edge="1" parent="1" source="JwIK93oX0tThSIfr5X6w-121" target="JwIK93oX0tThSIfr5X6w-136">
          <mxGeometry relative="1" as="geometry" />
        </mxCell>
        <mxCell id="JwIK93oX0tThSIfr5X6w-138" value="False" style="edgeLabel;html=1;align=center;verticalAlign=middle;resizable=0;points=[];" connectable="0" vertex="1" parent="JwIK93oX0tThSIfr5X6w-137">
          <mxGeometry x="-0.6443" y="1" relative="1" as="geometry">
            <mxPoint x="7" y="1" as="offset" />
          </mxGeometry>
        </mxCell>
        <mxCell id="JwIK93oX0tThSIfr5X6w-121" value="27" style="ellipse;whiteSpace=wrap;html=1;aspect=fixed;fontSize=32;" vertex="1" parent="1">
          <mxGeometry x="460" y="1980" width="80" height="80" as="geometry" />
        </mxCell>
        <mxCell id="JwIK93oX0tThSIfr5X6w-124" value="_sum &lt;= 28 &amp;&amp; _sum &gt; 1" style="text;whiteSpace=wrap;" vertex="1" parent="1">
          <mxGeometry x="350" y="1960" width="170" height="40" as="geometry" />
        </mxCell>
        <mxCell id="JwIK93oX0tThSIfr5X6w-181" style="edgeStyle=orthogonalEdgeStyle;rounded=0;orthogonalLoop=1;jettySize=auto;html=1;entryX=0;entryY=0.5;entryDx=0;entryDy=0;" edge="1" parent="1" source="JwIK93oX0tThSIfr5X6w-125" target="JwIK93oX0tThSIfr5X6w-169">
          <mxGeometry relative="1" as="geometry">
            <Array as="points">
              <mxPoint x="410" y="2820" />
            </Array>
          </mxGeometry>
        </mxCell>
        <mxCell id="JwIK93oX0tThSIfr5X6w-125" value="28" style="ellipse;whiteSpace=wrap;html=1;aspect=fixed;fontSize=32;" vertex="1" parent="1">
          <mxGeometry x="380" y="2070" width="80" height="80" as="geometry" />
        </mxCell>
        <mxCell id="JwIK93oX0tThSIfr5X6w-129" value="want.date = _sum;" style="text;whiteSpace=wrap;" vertex="1" parent="1">
          <mxGeometry x="290" y="2060" width="130" height="40" as="geometry" />
        </mxCell>
        <mxCell id="JwIK93oX0tThSIfr5X6w-149" style="edgeStyle=orthogonalEdgeStyle;rounded=0;orthogonalLoop=1;jettySize=auto;html=1;" edge="1" parent="1" source="JwIK93oX0tThSIfr5X6w-133" target="JwIK93oX0tThSIfr5X6w-148">
          <mxGeometry relative="1" as="geometry" />
        </mxCell>
        <mxCell id="JwIK93oX0tThSIfr5X6w-150" value="True" style="edgeLabel;html=1;align=center;verticalAlign=middle;resizable=0;points=[];" connectable="0" vertex="1" parent="JwIK93oX0tThSIfr5X6w-149">
          <mxGeometry x="-0.3331" y="-3" relative="1" as="geometry">
            <mxPoint as="offset" />
          </mxGeometry>
        </mxCell>
        <mxCell id="JwIK93oX0tThSIfr5X6w-152" style="edgeStyle=orthogonalEdgeStyle;rounded=0;orthogonalLoop=1;jettySize=auto;html=1;" edge="1" parent="1" source="JwIK93oX0tThSIfr5X6w-133" target="JwIK93oX0tThSIfr5X6w-151">
          <mxGeometry relative="1" as="geometry" />
        </mxCell>
        <mxCell id="JwIK93oX0tThSIfr5X6w-153" value="False" style="edgeLabel;html=1;align=center;verticalAlign=middle;resizable=0;points=[];" connectable="0" vertex="1" parent="JwIK93oX0tThSIfr5X6w-152">
          <mxGeometry x="-0.4655" y="-1" relative="1" as="geometry">
            <mxPoint as="offset" />
          </mxGeometry>
        </mxCell>
        <mxCell id="JwIK93oX0tThSIfr5X6w-133" value="31" style="ellipse;whiteSpace=wrap;html=1;aspect=fixed;fontSize=32;" vertex="1" parent="1">
          <mxGeometry x="830" y="2280" width="80" height="80" as="geometry" />
        </mxCell>
        <mxCell id="JwIK93oX0tThSIfr5X6w-135" value="unit === &#39;year&#39; &amp;&amp; s.year() === old.year()" style="text;whiteSpace=wrap;" vertex="1" parent="1">
          <mxGeometry x="910" y="2280" width="250" height="30" as="geometry" />
        </mxCell>
        <mxCell id="JwIK93oX0tThSIfr5X6w-142" style="edgeStyle=orthogonalEdgeStyle;rounded=0;orthogonalLoop=1;jettySize=auto;html=1;" edge="1" parent="1" source="JwIK93oX0tThSIfr5X6w-136" target="JwIK93oX0tThSIfr5X6w-141">
          <mxGeometry relative="1" as="geometry">
            <Array as="points">
              <mxPoint x="520" y="2100" />
            </Array>
          </mxGeometry>
        </mxCell>
        <mxCell id="JwIK93oX0tThSIfr5X6w-143" value="True" style="edgeLabel;html=1;align=center;verticalAlign=middle;resizable=0;points=[];" connectable="0" vertex="1" parent="JwIK93oX0tThSIfr5X6w-142">
          <mxGeometry x="-0.4236" y="2" relative="1" as="geometry">
            <mxPoint x="6" y="-2" as="offset" />
          </mxGeometry>
        </mxCell>
        <mxCell id="JwIK93oX0tThSIfr5X6w-178" style="edgeStyle=orthogonalEdgeStyle;rounded=0;orthogonalLoop=1;jettySize=auto;html=1;entryX=0.5;entryY=0;entryDx=0;entryDy=0;" edge="1" parent="1" source="JwIK93oX0tThSIfr5X6w-136" target="JwIK93oX0tThSIfr5X6w-169">
          <mxGeometry relative="1" as="geometry">
            <Array as="points">
              <mxPoint x="670" y="2100" />
            </Array>
          </mxGeometry>
        </mxCell>
        <mxCell id="JwIK93oX0tThSIfr5X6w-179" value="False" style="edgeLabel;html=1;align=center;verticalAlign=middle;resizable=0;points=[];" connectable="0" vertex="1" parent="JwIK93oX0tThSIfr5X6w-178">
          <mxGeometry x="-0.7739" y="2" relative="1" as="geometry">
            <mxPoint as="offset" />
          </mxGeometry>
        </mxCell>
        <mxCell id="JwIK93oX0tThSIfr5X6w-136" value="29" style="ellipse;whiteSpace=wrap;html=1;aspect=fixed;fontSize=32;" vertex="1" parent="1">
          <mxGeometry x="560" y="2060" width="80" height="80" as="geometry" />
        </mxCell>
        <mxCell id="JwIK93oX0tThSIfr5X6w-140" value="num !== 0 &amp;&amp; old.isSame(s, &#39;day&#39;)" style="text;whiteSpace=wrap;" vertex="1" parent="1">
          <mxGeometry x="610" y="2040" width="220" height="40" as="geometry" />
        </mxCell>
        <mxCell id="JwIK93oX0tThSIfr5X6w-180" style="edgeStyle=orthogonalEdgeStyle;rounded=0;orthogonalLoop=1;jettySize=auto;html=1;entryX=0;entryY=0.5;entryDx=0;entryDy=0;" edge="1" parent="1" source="JwIK93oX0tThSIfr5X6w-141" target="JwIK93oX0tThSIfr5X6w-169">
          <mxGeometry relative="1" as="geometry">
            <Array as="points">
              <mxPoint x="520" y="2820" />
            </Array>
          </mxGeometry>
        </mxCell>
        <mxCell id="JwIK93oX0tThSIfr5X6w-141" value="30" style="ellipse;whiteSpace=wrap;html=1;aspect=fixed;fontSize=32;" vertex="1" parent="1">
          <mxGeometry x="480" y="2150" width="80" height="80" as="geometry" />
        </mxCell>
        <mxCell id="JwIK93oX0tThSIfr5X6w-144" value="want.date = old.date() + num;" style="text;whiteSpace=wrap;" vertex="1" parent="1">
          <mxGeometry x="380" y="2210" width="190" height="40" as="geometry" />
        </mxCell>
        <mxCell id="JwIK93oX0tThSIfr5X6w-176" style="edgeStyle=orthogonalEdgeStyle;rounded=0;orthogonalLoop=1;jettySize=auto;html=1;entryX=1;entryY=0.5;entryDx=0;entryDy=0;" edge="1" parent="1" source="JwIK93oX0tThSIfr5X6w-148" target="JwIK93oX0tThSIfr5X6w-169">
          <mxGeometry relative="1" as="geometry">
            <Array as="points">
              <mxPoint x="770" y="2820" />
            </Array>
          </mxGeometry>
        </mxCell>
        <mxCell id="JwIK93oX0tThSIfr5X6w-148" value="32" style="ellipse;whiteSpace=wrap;html=1;aspect=fixed;fontSize=32;" vertex="1" parent="1">
          <mxGeometry x="730" y="2370" width="80" height="80" as="geometry" />
        </mxCell>
        <mxCell id="JwIK93oX0tThSIfr5X6w-159" style="edgeStyle=orthogonalEdgeStyle;rounded=0;orthogonalLoop=1;jettySize=auto;html=1;entryX=0.5;entryY=0;entryDx=0;entryDy=0;" edge="1" parent="1" source="JwIK93oX0tThSIfr5X6w-151" target="JwIK93oX0tThSIfr5X6w-158">
          <mxGeometry relative="1" as="geometry" />
        </mxCell>
        <mxCell id="JwIK93oX0tThSIfr5X6w-160" value="True" style="edgeLabel;html=1;align=center;verticalAlign=middle;resizable=0;points=[];" connectable="0" vertex="1" parent="JwIK93oX0tThSIfr5X6w-159">
          <mxGeometry x="-0.2886" y="1" relative="1" as="geometry">
            <mxPoint as="offset" />
          </mxGeometry>
        </mxCell>
        <mxCell id="JwIK93oX0tThSIfr5X6w-163" style="edgeStyle=orthogonalEdgeStyle;rounded=0;orthogonalLoop=1;jettySize=auto;html=1;entryX=0.5;entryY=0;entryDx=0;entryDy=0;" edge="1" parent="1" source="JwIK93oX0tThSIfr5X6w-151" target="JwIK93oX0tThSIfr5X6w-162">
          <mxGeometry relative="1" as="geometry" />
        </mxCell>
        <mxCell id="JwIK93oX0tThSIfr5X6w-151" value="33" style="ellipse;whiteSpace=wrap;html=1;aspect=fixed;fontSize=32;" vertex="1" parent="1">
          <mxGeometry x="960" y="2370" width="80" height="80" as="geometry" />
        </mxCell>
        <mxCell id="JwIK93oX0tThSIfr5X6w-155" value="unit === &#39;decade&#39;" style="text;whiteSpace=wrap;" vertex="1" parent="1">
          <mxGeometry x="1020" y="2350" width="130" height="40" as="geometry" />
        </mxCell>
        <mxCell id="JwIK93oX0tThSIfr5X6w-157" value="s.epoch += milliseconds.week;" style="text;whiteSpace=wrap;" vertex="1" parent="1">
          <mxGeometry x="580" y="2350" width="200" height="40" as="geometry" />
        </mxCell>
        <mxCell id="JwIK93oX0tThSIfr5X6w-174" style="edgeStyle=orthogonalEdgeStyle;rounded=0;orthogonalLoop=1;jettySize=auto;html=1;entryX=1;entryY=0.5;entryDx=0;entryDy=0;" edge="1" parent="1" source="JwIK93oX0tThSIfr5X6w-158" target="JwIK93oX0tThSIfr5X6w-169">
          <mxGeometry relative="1" as="geometry">
            <Array as="points">
              <mxPoint x="910" y="2820" />
            </Array>
          </mxGeometry>
        </mxCell>
        <mxCell id="JwIK93oX0tThSIfr5X6w-158" value="34" style="ellipse;whiteSpace=wrap;html=1;aspect=fixed;fontSize=32;" vertex="1" parent="1">
          <mxGeometry x="870" y="2460" width="80" height="80" as="geometry" />
        </mxCell>
        <mxCell id="JwIK93oX0tThSIfr5X6w-161" value="want.year = s.year() + 10;" style="text;whiteSpace=wrap;" vertex="1" parent="1">
          <mxGeometry x="750" y="2520" width="170" height="40" as="geometry" />
        </mxCell>
        <mxCell id="JwIK93oX0tThSIfr5X6w-166" style="edgeStyle=orthogonalEdgeStyle;rounded=0;orthogonalLoop=1;jettySize=auto;html=1;entryX=0.5;entryY=0;entryDx=0;entryDy=0;" edge="1" parent="1" source="JwIK93oX0tThSIfr5X6w-162" target="JwIK93oX0tThSIfr5X6w-165">
          <mxGeometry relative="1" as="geometry" />
        </mxCell>
        <mxCell id="JwIK93oX0tThSIfr5X6w-167" value="True" style="edgeLabel;html=1;align=center;verticalAlign=middle;resizable=0;points=[];" connectable="0" vertex="1" parent="JwIK93oX0tThSIfr5X6w-166">
          <mxGeometry x="-0.3445" y="2" relative="1" as="geometry">
            <mxPoint as="offset" />
          </mxGeometry>
        </mxCell>
        <mxCell id="JwIK93oX0tThSIfr5X6w-170" style="edgeStyle=orthogonalEdgeStyle;rounded=0;orthogonalLoop=1;jettySize=auto;html=1;entryX=1;entryY=0.5;entryDx=0;entryDy=0;" edge="1" parent="1" source="JwIK93oX0tThSIfr5X6w-162" target="JwIK93oX0tThSIfr5X6w-169">
          <mxGeometry relative="1" as="geometry">
            <Array as="points">
              <mxPoint x="1150" y="2820" />
            </Array>
          </mxGeometry>
        </mxCell>
        <mxCell id="JwIK93oX0tThSIfr5X6w-171" value="False" style="edgeLabel;html=1;align=center;verticalAlign=middle;resizable=0;points=[];" connectable="0" vertex="1" parent="JwIK93oX0tThSIfr5X6w-170">
          <mxGeometry x="-0.7875" y="3" relative="1" as="geometry">
            <mxPoint as="offset" />
          </mxGeometry>
        </mxCell>
        <mxCell id="JwIK93oX0tThSIfr5X6w-162" value="35" style="ellipse;whiteSpace=wrap;html=1;aspect=fixed;fontSize=32;" vertex="1" parent="1">
          <mxGeometry x="1110" y="2460" width="80" height="80" as="geometry" />
        </mxCell>
        <mxCell id="JwIK93oX0tThSIfr5X6w-164" value="unit === &#39;century&#39;" style="text;whiteSpace=wrap;" vertex="1" parent="1">
          <mxGeometry x="1170" y="2440" width="120" height="40" as="geometry" />
        </mxCell>
        <mxCell id="JwIK93oX0tThSIfr5X6w-172" style="edgeStyle=orthogonalEdgeStyle;rounded=0;orthogonalLoop=1;jettySize=auto;html=1;entryX=1;entryY=0.5;entryDx=0;entryDy=0;" edge="1" parent="1" source="JwIK93oX0tThSIfr5X6w-165" target="JwIK93oX0tThSIfr5X6w-169">
          <mxGeometry relative="1" as="geometry">
            <Array as="points">
              <mxPoint x="1040" y="2820" />
            </Array>
          </mxGeometry>
        </mxCell>
        <mxCell id="JwIK93oX0tThSIfr5X6w-165" value="36" style="ellipse;whiteSpace=wrap;html=1;aspect=fixed;fontSize=32;" vertex="1" parent="1">
          <mxGeometry x="1000" y="2560" width="80" height="80" as="geometry" />
        </mxCell>
        <mxCell id="JwIK93oX0tThSIfr5X6w-168" value="want.year = s.year() + 100;" style="text;whiteSpace=wrap;" vertex="1" parent="1">
          <mxGeometry x="910" y="2560" width="180" height="30" as="geometry" />
        </mxCell>
        <mxCell id="JwIK93oX0tThSIfr5X6w-188" style="edgeStyle=orthogonalEdgeStyle;rounded=0;orthogonalLoop=1;jettySize=auto;html=1;" edge="1" parent="1" source="JwIK93oX0tThSIfr5X6w-169" target="JwIK93oX0tThSIfr5X6w-187">
          <mxGeometry relative="1" as="geometry">
            <Array as="points">
              <mxPoint x="520" y="2850" />
            </Array>
          </mxGeometry>
        </mxCell>
        <mxCell id="JwIK93oX0tThSIfr5X6w-189" value="True" style="edgeLabel;html=1;align=center;verticalAlign=middle;resizable=0;points=[];" connectable="0" vertex="1" parent="JwIK93oX0tThSIfr5X6w-188">
          <mxGeometry x="-0.285" relative="1" as="geometry">
            <mxPoint as="offset" />
          </mxGeometry>
        </mxCell>
        <mxCell id="JwIK93oX0tThSIfr5X6w-201" style="edgeStyle=orthogonalEdgeStyle;rounded=0;orthogonalLoop=1;jettySize=auto;html=1;" edge="1" parent="1" source="JwIK93oX0tThSIfr5X6w-169" target="JwIK93oX0tThSIfr5X6w-197">
          <mxGeometry relative="1" as="geometry" />
        </mxCell>
        <mxCell id="JwIK93oX0tThSIfr5X6w-202" value="False" style="edgeLabel;html=1;align=center;verticalAlign=middle;resizable=0;points=[];" connectable="0" vertex="1" parent="JwIK93oX0tThSIfr5X6w-201">
          <mxGeometry x="-0.7804" y="1" relative="1" as="geometry">
            <mxPoint as="offset" />
          </mxGeometry>
        </mxCell>
        <mxCell id="JwIK93oX0tThSIfr5X6w-169" value="37" style="ellipse;whiteSpace=wrap;html=1;aspect=fixed;fontSize=32;" vertex="1" parent="1">
          <mxGeometry x="630" y="2780" width="80" height="80" as="geometry" />
        </mxCell>
        <mxCell id="JwIK93oX0tThSIfr5X6w-186" value="if (keepDate[unit])" style="text;whiteSpace=wrap;" vertex="1" parent="1">
          <mxGeometry x="550" y="2760" width="130" height="40" as="geometry" />
        </mxCell>
        <mxCell id="JwIK93oX0tThSIfr5X6w-191" style="edgeStyle=orthogonalEdgeStyle;rounded=0;orthogonalLoop=1;jettySize=auto;html=1;" edge="1" parent="1" source="JwIK93oX0tThSIfr5X6w-187" target="JwIK93oX0tThSIfr5X6w-190">
          <mxGeometry relative="1" as="geometry" />
        </mxCell>
        <mxCell id="JwIK93oX0tThSIfr5X6w-195" value="True" style="edgeLabel;html=1;align=center;verticalAlign=middle;resizable=0;points=[];" connectable="0" vertex="1" parent="JwIK93oX0tThSIfr5X6w-191">
          <mxGeometry x="-0.4391" y="-1" relative="1" as="geometry">
            <mxPoint as="offset" />
          </mxGeometry>
        </mxCell>
        <mxCell id="JwIK93oX0tThSIfr5X6w-199" style="edgeStyle=orthogonalEdgeStyle;rounded=0;orthogonalLoop=1;jettySize=auto;html=1;" edge="1" parent="1" source="JwIK93oX0tThSIfr5X6w-187" target="JwIK93oX0tThSIfr5X6w-197">
          <mxGeometry relative="1" as="geometry" />
        </mxCell>
        <mxCell id="JwIK93oX0tThSIfr5X6w-200" value="False" style="edgeLabel;html=1;align=center;verticalAlign=middle;resizable=0;points=[];" connectable="0" vertex="1" parent="JwIK93oX0tThSIfr5X6w-199">
          <mxGeometry x="-0.6423" y="-3" relative="1" as="geometry">
            <mxPoint x="-16" y="-3" as="offset" />
          </mxGeometry>
        </mxCell>
        <mxCell id="JwIK93oX0tThSIfr5X6w-187" value="38" style="ellipse;whiteSpace=wrap;html=1;aspect=fixed;fontSize=32;" vertex="1" parent="1">
          <mxGeometry x="480" y="2900" width="80" height="80" as="geometry" />
        </mxCell>
        <mxCell id="JwIK93oX0tThSIfr5X6w-198" style="edgeStyle=orthogonalEdgeStyle;rounded=0;orthogonalLoop=1;jettySize=auto;html=1;entryX=0;entryY=0.5;entryDx=0;entryDy=0;" edge="1" parent="1" source="JwIK93oX0tThSIfr5X6w-190" target="JwIK93oX0tThSIfr5X6w-197">
          <mxGeometry relative="1" as="geometry" />
        </mxCell>
        <mxCell id="JwIK93oX0tThSIfr5X6w-190" value="39" style="ellipse;whiteSpace=wrap;html=1;aspect=fixed;fontSize=32;" vertex="1" parent="1">
          <mxGeometry x="385" y="3000" width="80" height="80" as="geometry" />
        </mxCell>
        <mxCell id="JwIK93oX0tThSIfr5X6w-192" value="want.date &gt; max" style="text;whiteSpace=wrap;" vertex="1" parent="1">
          <mxGeometry x="395" y="2900" width="120" height="20" as="geometry" />
        </mxCell>
        <mxCell id="JwIK93oX0tThSIfr5X6w-196" value="want.date = max;" style="text;html=1;align=center;verticalAlign=middle;resizable=0;points=[];autosize=1;strokeColor=none;fillColor=none;" vertex="1" parent="1">
          <mxGeometry x="295" y="2980" width="120" height="30" as="geometry" />
        </mxCell>
        <mxCell id="JwIK93oX0tThSIfr5X6w-197" value="40" style="ellipse;whiteSpace=wrap;html=1;aspect=fixed;fontSize=32;strokeColor=#ff0000;" vertex="1" parent="1">
          <mxGeometry x="630" y="3090" width="80" height="80" as="geometry" />
        </mxCell>
      </root>
    </mxGraphModel>
  </diagram>
</mxfile>
